<mxfile host="app.diagrams.net" modified="2022-01-06T17:36:09.682Z" agent="5.0 (Windows NT 10.0; Win64; x64) AppleWebKit/537.36 (KHTML, like Gecko) Chrome/97.0.4692.71 Safari/537.36" etag="07vY37lopMsUErE4VwbF" version="16.2.2" type="github">
  <diagram id="R2lEEEUBdFMjLlhIrx00" name="Page-1">
    <mxGraphModel dx="1094" dy="611" grid="0" gridSize="10" guides="1" tooltips="1" connect="1" arrows="1" fold="1" page="1" pageScale="1" pageWidth="850" pageHeight="1100" math="0" shadow="0" extFonts="Permanent Marker^https://fonts.googleapis.com/css?family=Permanent+Marker">
      <root>
        <mxCell id="0" />
        <mxCell id="1" parent="0" />
        <mxCell id="C-vyLk0tnHw3VtMMgP7b-23" value="USERS" style="shape=table;startSize=30;container=1;collapsible=1;childLayout=tableLayout;fixedRows=1;rowLines=0;fontStyle=1;align=center;resizeLast=1;fillColor=#ffe6cc;strokeColor=#d79b00;" parent="1" vertex="1">
          <mxGeometry x="53" y="178" width="250" height="120" as="geometry" />
        </mxCell>
        <mxCell id="C-vyLk0tnHw3VtMMgP7b-24" value="" style="shape=partialRectangle;collapsible=0;dropTarget=0;pointerEvents=0;fillColor=#ffe6cc;points=[[0,0.5],[1,0.5]];portConstraint=eastwest;top=0;left=0;right=0;bottom=1;strokeColor=#d79b00;" parent="C-vyLk0tnHw3VtMMgP7b-23" vertex="1">
          <mxGeometry y="30" width="250" height="30" as="geometry" />
        </mxCell>
        <mxCell id="C-vyLk0tnHw3VtMMgP7b-25" value="ID" style="shape=partialRectangle;overflow=hidden;connectable=0;fillColor=#f8cecc;top=0;left=0;bottom=0;right=0;fontStyle=1;strokeColor=#b85450;" parent="C-vyLk0tnHw3VtMMgP7b-24" vertex="1">
          <mxGeometry width="30" height="30" as="geometry">
            <mxRectangle width="30" height="30" as="alternateBounds" />
          </mxGeometry>
        </mxCell>
        <mxCell id="C-vyLk0tnHw3VtMMgP7b-26" value="user_id | int NOT NULL" style="shape=partialRectangle;overflow=hidden;connectable=0;fillColor=#f8cecc;top=0;left=0;bottom=0;right=0;align=left;spacingLeft=6;fontStyle=5;strokeColor=#b85450;" parent="C-vyLk0tnHw3VtMMgP7b-24" vertex="1">
          <mxGeometry x="30" width="220" height="30" as="geometry">
            <mxRectangle width="220" height="30" as="alternateBounds" />
          </mxGeometry>
        </mxCell>
        <mxCell id="C-vyLk0tnHw3VtMMgP7b-27" value="" style="shape=partialRectangle;collapsible=0;dropTarget=0;pointerEvents=0;fillColor=#ffe6cc;points=[[0,0.5],[1,0.5]];portConstraint=eastwest;top=0;left=0;right=0;bottom=0;strokeColor=#d79b00;" parent="C-vyLk0tnHw3VtMMgP7b-23" vertex="1">
          <mxGeometry y="60" width="250" height="30" as="geometry" />
        </mxCell>
        <mxCell id="C-vyLk0tnHw3VtMMgP7b-28" value="1" style="shape=partialRectangle;overflow=hidden;connectable=0;fillColor=#ffe6cc;top=0;left=0;bottom=0;right=0;strokeColor=#d79b00;" parent="C-vyLk0tnHw3VtMMgP7b-27" vertex="1">
          <mxGeometry width="30" height="30" as="geometry">
            <mxRectangle width="30" height="30" as="alternateBounds" />
          </mxGeometry>
        </mxCell>
        <mxCell id="C-vyLk0tnHw3VtMMgP7b-29" value="name | varchar(50) NOT NULL" style="shape=partialRectangle;overflow=hidden;connectable=0;fillColor=#ffe6cc;top=0;left=0;bottom=0;right=0;align=left;spacingLeft=6;strokeColor=#d79b00;" parent="C-vyLk0tnHw3VtMMgP7b-27" vertex="1">
          <mxGeometry x="30" width="220" height="30" as="geometry">
            <mxRectangle width="220" height="30" as="alternateBounds" />
          </mxGeometry>
        </mxCell>
        <mxCell id="Czl3jk9CnUrV8V8cIehm-1" style="shape=partialRectangle;collapsible=0;dropTarget=0;pointerEvents=0;fillColor=#ffe6cc;points=[[0,0.5],[1,0.5]];portConstraint=eastwest;top=0;left=0;right=0;bottom=0;strokeColor=#d79b00;" parent="C-vyLk0tnHw3VtMMgP7b-23" vertex="1">
          <mxGeometry y="90" width="250" height="30" as="geometry" />
        </mxCell>
        <mxCell id="Czl3jk9CnUrV8V8cIehm-2" value="2" style="shape=partialRectangle;overflow=hidden;connectable=0;fillColor=#ffe6cc;top=0;left=0;bottom=0;right=0;strokeColor=#d79b00;" parent="Czl3jk9CnUrV8V8cIehm-1" vertex="1">
          <mxGeometry width="30" height="30" as="geometry">
            <mxRectangle width="30" height="30" as="alternateBounds" />
          </mxGeometry>
        </mxCell>
        <mxCell id="Czl3jk9CnUrV8V8cIehm-3" value="email | varchar(255) NOT NULL" style="shape=partialRectangle;overflow=hidden;connectable=0;fillColor=#ffe6cc;top=0;left=0;bottom=0;right=0;align=left;spacingLeft=6;strokeColor=#d79b00;" parent="Czl3jk9CnUrV8V8cIehm-1" vertex="1">
          <mxGeometry x="30" width="220" height="30" as="geometry">
            <mxRectangle width="220" height="30" as="alternateBounds" />
          </mxGeometry>
        </mxCell>
        <mxCell id="3Q6PbLY1gjNJ_34ThS2c-1" value="PERMISSION" style="shape=table;startSize=30;container=1;collapsible=1;childLayout=tableLayout;fixedRows=1;rowLines=0;fontStyle=1;align=center;resizeLast=1;fillColor=#ffe6cc;strokeColor=#d79b00;" vertex="1" parent="1">
          <mxGeometry x="568" y="193" width="250" height="90" as="geometry" />
        </mxCell>
        <mxCell id="3Q6PbLY1gjNJ_34ThS2c-2" value="" style="shape=partialRectangle;collapsible=0;dropTarget=0;pointerEvents=0;fillColor=#ffe6cc;points=[[0,0.5],[1,0.5]];portConstraint=eastwest;top=0;left=0;right=0;bottom=1;strokeColor=#d79b00;" vertex="1" parent="3Q6PbLY1gjNJ_34ThS2c-1">
          <mxGeometry y="30" width="250" height="30" as="geometry" />
        </mxCell>
        <mxCell id="3Q6PbLY1gjNJ_34ThS2c-3" value="ID" style="shape=partialRectangle;overflow=hidden;connectable=0;fillColor=#f8cecc;top=0;left=0;bottom=0;right=0;fontStyle=1;strokeColor=#b85450;" vertex="1" parent="3Q6PbLY1gjNJ_34ThS2c-2">
          <mxGeometry width="30" height="30" as="geometry">
            <mxRectangle width="30" height="30" as="alternateBounds" />
          </mxGeometry>
        </mxCell>
        <mxCell id="3Q6PbLY1gjNJ_34ThS2c-4" value="perm_id | int NOT NULL" style="shape=partialRectangle;overflow=hidden;connectable=0;fillColor=#f8cecc;top=0;left=0;bottom=0;right=0;align=left;spacingLeft=6;fontStyle=5;strokeColor=#b85450;" vertex="1" parent="3Q6PbLY1gjNJ_34ThS2c-2">
          <mxGeometry x="30" width="220" height="30" as="geometry">
            <mxRectangle width="220" height="30" as="alternateBounds" />
          </mxGeometry>
        </mxCell>
        <mxCell id="3Q6PbLY1gjNJ_34ThS2c-5" value="" style="shape=partialRectangle;collapsible=0;dropTarget=0;pointerEvents=0;fillColor=#ffe6cc;points=[[0,0.5],[1,0.5]];portConstraint=eastwest;top=0;left=0;right=0;bottom=0;strokeColor=#d79b00;" vertex="1" parent="3Q6PbLY1gjNJ_34ThS2c-1">
          <mxGeometry y="60" width="250" height="30" as="geometry" />
        </mxCell>
        <mxCell id="3Q6PbLY1gjNJ_34ThS2c-6" value="1" style="shape=partialRectangle;overflow=hidden;connectable=0;fillColor=#ffe6cc;top=0;left=0;bottom=0;right=0;strokeColor=#d79b00;" vertex="1" parent="3Q6PbLY1gjNJ_34ThS2c-5">
          <mxGeometry width="30" height="30" as="geometry">
            <mxRectangle width="30" height="30" as="alternateBounds" />
          </mxGeometry>
        </mxCell>
        <mxCell id="3Q6PbLY1gjNJ_34ThS2c-7" value="perm_name | varchar(255) NOT NULL" style="shape=partialRectangle;overflow=hidden;connectable=0;fillColor=#ffe6cc;top=0;left=0;bottom=0;right=0;align=left;spacingLeft=6;strokeColor=#d79b00;" vertex="1" parent="3Q6PbLY1gjNJ_34ThS2c-5">
          <mxGeometry x="30" width="220" height="30" as="geometry">
            <mxRectangle width="220" height="30" as="alternateBounds" />
          </mxGeometry>
        </mxCell>
        <mxCell id="3Q6PbLY1gjNJ_34ThS2c-12" value="POSSEDER" style="rounded=0;whiteSpace=wrap;html=1;fillColor=#dae8fc;strokeColor=#6c8ebf;" vertex="1" parent="1">
          <mxGeometry x="368" y="208" width="120" height="60" as="geometry" />
        </mxCell>
        <mxCell id="3Q6PbLY1gjNJ_34ThS2c-14" value="" style="endArrow=none;html=1;rounded=0;exitX=0.989;exitY=0.019;exitDx=0;exitDy=0;exitPerimeter=0;" edge="1" parent="1" source="C-vyLk0tnHw3VtMMgP7b-27">
          <mxGeometry width="50" height="50" relative="1" as="geometry">
            <mxPoint x="378" y="288" as="sourcePoint" />
            <mxPoint x="368" y="238" as="targetPoint" />
          </mxGeometry>
        </mxCell>
        <mxCell id="3Q6PbLY1gjNJ_34ThS2c-15" value="" style="endArrow=none;html=1;rounded=0;entryX=0;entryY=0.5;entryDx=0;entryDy=0;" edge="1" parent="1" source="3Q6PbLY1gjNJ_34ThS2c-12" target="3Q6PbLY1gjNJ_34ThS2c-2">
          <mxGeometry width="50" height="50" relative="1" as="geometry">
            <mxPoint x="378" y="288" as="sourcePoint" />
            <mxPoint x="428" y="238" as="targetPoint" />
          </mxGeometry>
        </mxCell>
        <mxCell id="3Q6PbLY1gjNJ_34ThS2c-16" value="0,n" style="text;html=1;align=center;verticalAlign=middle;resizable=0;points=[];autosize=1;strokeColor=none;fillColor=none;" vertex="1" parent="1">
          <mxGeometry x="303" y="218" width="30" height="20" as="geometry" />
        </mxCell>
        <mxCell id="3Q6PbLY1gjNJ_34ThS2c-17" value="0,n" style="text;html=1;align=center;verticalAlign=middle;resizable=0;points=[];autosize=1;strokeColor=none;fillColor=none;" vertex="1" parent="1">
          <mxGeometry x="538" y="218" width="30" height="20" as="geometry" />
        </mxCell>
        <mxCell id="3Q6PbLY1gjNJ_34ThS2c-25" value="ECRIRE" style="rounded=0;whiteSpace=wrap;html=1;fillColor=#dae8fc;strokeColor=#6c8ebf;" vertex="1" parent="1">
          <mxGeometry x="118" y="358" width="120" height="60" as="geometry" />
        </mxCell>
        <mxCell id="3Q6PbLY1gjNJ_34ThS2c-27" value="" style="endArrow=none;html=1;rounded=0;entryX=0.5;entryY=1;entryDx=0;entryDy=0;exitX=0.5;exitY=0;exitDx=0;exitDy=0;" edge="1" parent="1" source="3Q6PbLY1gjNJ_34ThS2c-25" target="C-vyLk0tnHw3VtMMgP7b-23">
          <mxGeometry width="50" height="50" relative="1" as="geometry">
            <mxPoint x="308" y="388" as="sourcePoint" />
            <mxPoint x="358" y="338" as="targetPoint" />
          </mxGeometry>
        </mxCell>
        <mxCell id="3Q6PbLY1gjNJ_34ThS2c-28" value="" style="endArrow=none;html=1;rounded=0;entryX=0.5;entryY=1;entryDx=0;entryDy=0;exitX=0.5;exitY=0;exitDx=0;exitDy=0;" edge="1" parent="1" target="3Q6PbLY1gjNJ_34ThS2c-25">
          <mxGeometry width="50" height="50" relative="1" as="geometry">
            <mxPoint x="178" y="483" as="sourcePoint" />
            <mxPoint x="188" y="308" as="targetPoint" />
          </mxGeometry>
        </mxCell>
        <mxCell id="3Q6PbLY1gjNJ_34ThS2c-29" value="0,n" style="text;html=1;align=center;verticalAlign=middle;resizable=0;points=[];autosize=1;strokeColor=none;fillColor=none;" vertex="1" parent="1">
          <mxGeometry x="178" y="298" width="30" height="20" as="geometry" />
        </mxCell>
        <mxCell id="3Q6PbLY1gjNJ_34ThS2c-30" value="1,n" style="text;html=1;align=center;verticalAlign=middle;resizable=0;points=[];autosize=1;strokeColor=none;fillColor=none;" vertex="1" parent="1">
          <mxGeometry x="178" y="463" width="30" height="20" as="geometry" />
        </mxCell>
        <mxCell id="3Q6PbLY1gjNJ_34ThS2c-31" value="USERS" style="shape=table;startSize=30;container=1;collapsible=1;childLayout=tableLayout;fixedRows=1;rowLines=0;fontStyle=1;align=center;resizeLast=1;fillColor=#ffe6cc;strokeColor=#d79b00;" vertex="1" parent="1">
          <mxGeometry x="903" y="334" width="250" height="120" as="geometry" />
        </mxCell>
        <mxCell id="3Q6PbLY1gjNJ_34ThS2c-32" value="" style="shape=partialRectangle;collapsible=0;dropTarget=0;pointerEvents=0;fillColor=#ffe6cc;points=[[0,0.5],[1,0.5]];portConstraint=eastwest;top=0;left=0;right=0;bottom=1;strokeColor=#d79b00;" vertex="1" parent="3Q6PbLY1gjNJ_34ThS2c-31">
          <mxGeometry y="30" width="250" height="30" as="geometry" />
        </mxCell>
        <mxCell id="3Q6PbLY1gjNJ_34ThS2c-33" value="ID" style="shape=partialRectangle;overflow=hidden;connectable=0;fillColor=#f8cecc;top=0;left=0;bottom=0;right=0;fontStyle=1;strokeColor=#b85450;" vertex="1" parent="3Q6PbLY1gjNJ_34ThS2c-32">
          <mxGeometry width="30" height="30" as="geometry">
            <mxRectangle width="30" height="30" as="alternateBounds" />
          </mxGeometry>
        </mxCell>
        <mxCell id="3Q6PbLY1gjNJ_34ThS2c-34" value="user_id | int NOT NULL" style="shape=partialRectangle;overflow=hidden;connectable=0;fillColor=#f8cecc;top=0;left=0;bottom=0;right=0;align=left;spacingLeft=6;fontStyle=5;strokeColor=#b85450;" vertex="1" parent="3Q6PbLY1gjNJ_34ThS2c-32">
          <mxGeometry x="30" width="220" height="30" as="geometry">
            <mxRectangle width="220" height="30" as="alternateBounds" />
          </mxGeometry>
        </mxCell>
        <mxCell id="3Q6PbLY1gjNJ_34ThS2c-35" value="" style="shape=partialRectangle;collapsible=0;dropTarget=0;pointerEvents=0;fillColor=#ffe6cc;points=[[0,0.5],[1,0.5]];portConstraint=eastwest;top=0;left=0;right=0;bottom=0;strokeColor=#d79b00;" vertex="1" parent="3Q6PbLY1gjNJ_34ThS2c-31">
          <mxGeometry y="60" width="250" height="30" as="geometry" />
        </mxCell>
        <mxCell id="3Q6PbLY1gjNJ_34ThS2c-36" value="1" style="shape=partialRectangle;overflow=hidden;connectable=0;fillColor=#ffe6cc;top=0;left=0;bottom=0;right=0;strokeColor=#d79b00;" vertex="1" parent="3Q6PbLY1gjNJ_34ThS2c-35">
          <mxGeometry width="30" height="30" as="geometry">
            <mxRectangle width="30" height="30" as="alternateBounds" />
          </mxGeometry>
        </mxCell>
        <mxCell id="3Q6PbLY1gjNJ_34ThS2c-37" value="name | varchar(50) NOT NULL" style="shape=partialRectangle;overflow=hidden;connectable=0;fillColor=#ffe6cc;top=0;left=0;bottom=0;right=0;align=left;spacingLeft=6;strokeColor=#d79b00;" vertex="1" parent="3Q6PbLY1gjNJ_34ThS2c-35">
          <mxGeometry x="30" width="220" height="30" as="geometry">
            <mxRectangle width="220" height="30" as="alternateBounds" />
          </mxGeometry>
        </mxCell>
        <mxCell id="3Q6PbLY1gjNJ_34ThS2c-38" style="shape=partialRectangle;collapsible=0;dropTarget=0;pointerEvents=0;fillColor=#ffe6cc;points=[[0,0.5],[1,0.5]];portConstraint=eastwest;top=0;left=0;right=0;bottom=0;strokeColor=#d79b00;" vertex="1" parent="3Q6PbLY1gjNJ_34ThS2c-31">
          <mxGeometry y="90" width="250" height="30" as="geometry" />
        </mxCell>
        <mxCell id="3Q6PbLY1gjNJ_34ThS2c-39" value="2" style="shape=partialRectangle;overflow=hidden;connectable=0;fillColor=#ffe6cc;top=0;left=0;bottom=0;right=0;strokeColor=#d79b00;" vertex="1" parent="3Q6PbLY1gjNJ_34ThS2c-38">
          <mxGeometry width="30" height="30" as="geometry">
            <mxRectangle width="30" height="30" as="alternateBounds" />
          </mxGeometry>
        </mxCell>
        <mxCell id="3Q6PbLY1gjNJ_34ThS2c-40" value="email | varchar(255) NOT NULL" style="shape=partialRectangle;overflow=hidden;connectable=0;fillColor=#ffe6cc;top=0;left=0;bottom=0;right=0;align=left;spacingLeft=6;strokeColor=#d79b00;" vertex="1" parent="3Q6PbLY1gjNJ_34ThS2c-38">
          <mxGeometry x="30" width="220" height="30" as="geometry">
            <mxRectangle width="220" height="30" as="alternateBounds" />
          </mxGeometry>
        </mxCell>
        <mxCell id="3Q6PbLY1gjNJ_34ThS2c-41" value="PERMISSION" style="shape=table;startSize=30;container=1;collapsible=1;childLayout=tableLayout;fixedRows=1;rowLines=0;fontStyle=1;align=center;resizeLast=1;fillColor=#ffe6cc;strokeColor=#d79b00;" vertex="1" parent="1">
          <mxGeometry x="1418" y="334" width="250" height="90" as="geometry" />
        </mxCell>
        <mxCell id="3Q6PbLY1gjNJ_34ThS2c-42" value="" style="shape=partialRectangle;collapsible=0;dropTarget=0;pointerEvents=0;fillColor=#ffe6cc;points=[[0,0.5],[1,0.5]];portConstraint=eastwest;top=0;left=0;right=0;bottom=1;strokeColor=#d79b00;" vertex="1" parent="3Q6PbLY1gjNJ_34ThS2c-41">
          <mxGeometry y="30" width="250" height="30" as="geometry" />
        </mxCell>
        <mxCell id="3Q6PbLY1gjNJ_34ThS2c-43" value="ID" style="shape=partialRectangle;overflow=hidden;connectable=0;fillColor=#f8cecc;top=0;left=0;bottom=0;right=0;fontStyle=1;strokeColor=#b85450;" vertex="1" parent="3Q6PbLY1gjNJ_34ThS2c-42">
          <mxGeometry width="30" height="30" as="geometry">
            <mxRectangle width="30" height="30" as="alternateBounds" />
          </mxGeometry>
        </mxCell>
        <mxCell id="3Q6PbLY1gjNJ_34ThS2c-44" value="perm_id | int NOT NULL" style="shape=partialRectangle;overflow=hidden;connectable=0;fillColor=#f8cecc;top=0;left=0;bottom=0;right=0;align=left;spacingLeft=6;fontStyle=5;strokeColor=#b85450;" vertex="1" parent="3Q6PbLY1gjNJ_34ThS2c-42">
          <mxGeometry x="30" width="220" height="30" as="geometry">
            <mxRectangle width="220" height="30" as="alternateBounds" />
          </mxGeometry>
        </mxCell>
        <mxCell id="3Q6PbLY1gjNJ_34ThS2c-45" value="" style="shape=partialRectangle;collapsible=0;dropTarget=0;pointerEvents=0;fillColor=#ffe6cc;points=[[0,0.5],[1,0.5]];portConstraint=eastwest;top=0;left=0;right=0;bottom=0;strokeColor=#d79b00;" vertex="1" parent="3Q6PbLY1gjNJ_34ThS2c-41">
          <mxGeometry y="60" width="250" height="30" as="geometry" />
        </mxCell>
        <mxCell id="3Q6PbLY1gjNJ_34ThS2c-46" value="1" style="shape=partialRectangle;overflow=hidden;connectable=0;fillColor=#ffe6cc;top=0;left=0;bottom=0;right=0;strokeColor=#d79b00;" vertex="1" parent="3Q6PbLY1gjNJ_34ThS2c-45">
          <mxGeometry width="30" height="30" as="geometry">
            <mxRectangle width="30" height="30" as="alternateBounds" />
          </mxGeometry>
        </mxCell>
        <mxCell id="3Q6PbLY1gjNJ_34ThS2c-47" value="perm_name | varchar(255) NOT NULL" style="shape=partialRectangle;overflow=hidden;connectable=0;fillColor=#ffe6cc;top=0;left=0;bottom=0;right=0;align=left;spacingLeft=6;strokeColor=#d79b00;" vertex="1" parent="3Q6PbLY1gjNJ_34ThS2c-45">
          <mxGeometry x="30" width="220" height="30" as="geometry">
            <mxRectangle width="220" height="30" as="alternateBounds" />
          </mxGeometry>
        </mxCell>
        <mxCell id="3Q6PbLY1gjNJ_34ThS2c-53" value="ARTICLE" style="shape=table;startSize=30;container=1;collapsible=1;childLayout=tableLayout;fixedRows=1;rowLines=0;fontStyle=1;align=center;resizeLast=1;fillColor=#ffe6cc;strokeColor=#d79b00;" vertex="1" parent="1">
          <mxGeometry x="903" y="639" width="250" height="120" as="geometry" />
        </mxCell>
        <mxCell id="3Q6PbLY1gjNJ_34ThS2c-54" value="" style="shape=partialRectangle;collapsible=0;dropTarget=0;pointerEvents=0;fillColor=#ffe6cc;points=[[0,0.5],[1,0.5]];portConstraint=eastwest;top=0;left=0;right=0;bottom=1;strokeColor=#d79b00;" vertex="1" parent="3Q6PbLY1gjNJ_34ThS2c-53">
          <mxGeometry y="30" width="250" height="30" as="geometry" />
        </mxCell>
        <mxCell id="3Q6PbLY1gjNJ_34ThS2c-55" value="ID" style="shape=partialRectangle;overflow=hidden;connectable=0;fillColor=#f8cecc;top=0;left=0;bottom=0;right=0;fontStyle=1;strokeColor=#b85450;" vertex="1" parent="3Q6PbLY1gjNJ_34ThS2c-54">
          <mxGeometry width="30" height="30" as="geometry">
            <mxRectangle width="30" height="30" as="alternateBounds" />
          </mxGeometry>
        </mxCell>
        <mxCell id="3Q6PbLY1gjNJ_34ThS2c-56" value="article_id | int NOT NULL" style="shape=partialRectangle;overflow=hidden;connectable=0;fillColor=#f8cecc;top=0;left=0;bottom=0;right=0;align=left;spacingLeft=6;fontStyle=5;strokeColor=#b85450;" vertex="1" parent="3Q6PbLY1gjNJ_34ThS2c-54">
          <mxGeometry x="30" width="220" height="30" as="geometry">
            <mxRectangle width="220" height="30" as="alternateBounds" />
          </mxGeometry>
        </mxCell>
        <mxCell id="3Q6PbLY1gjNJ_34ThS2c-57" value="" style="shape=partialRectangle;collapsible=0;dropTarget=0;pointerEvents=0;fillColor=#ffe6cc;points=[[0,0.5],[1,0.5]];portConstraint=eastwest;top=0;left=0;right=0;bottom=0;strokeColor=#d79b00;" vertex="1" parent="3Q6PbLY1gjNJ_34ThS2c-53">
          <mxGeometry y="60" width="250" height="30" as="geometry" />
        </mxCell>
        <mxCell id="3Q6PbLY1gjNJ_34ThS2c-58" value="1" style="shape=partialRectangle;overflow=hidden;connectable=0;fillColor=#ffe6cc;top=0;left=0;bottom=0;right=0;strokeColor=#d79b00;" vertex="1" parent="3Q6PbLY1gjNJ_34ThS2c-57">
          <mxGeometry width="30" height="30" as="geometry">
            <mxRectangle width="30" height="30" as="alternateBounds" />
          </mxGeometry>
        </mxCell>
        <mxCell id="3Q6PbLY1gjNJ_34ThS2c-59" value="title | varchar(255) NOT NULL" style="shape=partialRectangle;overflow=hidden;connectable=0;fillColor=#ffe6cc;top=0;left=0;bottom=0;right=0;align=left;spacingLeft=6;strokeColor=#d79b00;" vertex="1" parent="3Q6PbLY1gjNJ_34ThS2c-57">
          <mxGeometry x="30" width="220" height="30" as="geometry">
            <mxRectangle width="220" height="30" as="alternateBounds" />
          </mxGeometry>
        </mxCell>
        <mxCell id="3Q6PbLY1gjNJ_34ThS2c-81" style="shape=partialRectangle;collapsible=0;dropTarget=0;pointerEvents=0;fillColor=#ffe6cc;points=[[0,0.5],[1,0.5]];portConstraint=eastwest;top=0;left=0;right=0;bottom=0;strokeColor=#d79b00;" vertex="1" parent="3Q6PbLY1gjNJ_34ThS2c-53">
          <mxGeometry y="90" width="250" height="30" as="geometry" />
        </mxCell>
        <mxCell id="3Q6PbLY1gjNJ_34ThS2c-82" value="2" style="shape=partialRectangle;overflow=hidden;connectable=0;fillColor=#ffe6cc;top=0;left=0;bottom=0;right=0;strokeColor=#d79b00;" vertex="1" parent="3Q6PbLY1gjNJ_34ThS2c-81">
          <mxGeometry width="30" height="30" as="geometry">
            <mxRectangle width="30" height="30" as="alternateBounds" />
          </mxGeometry>
        </mxCell>
        <mxCell id="3Q6PbLY1gjNJ_34ThS2c-83" value="text | varchat(1000) NOT NULL" style="shape=partialRectangle;overflow=hidden;connectable=0;fillColor=#ffe6cc;top=0;left=0;bottom=0;right=0;align=left;spacingLeft=6;strokeColor=#d79b00;" vertex="1" parent="3Q6PbLY1gjNJ_34ThS2c-81">
          <mxGeometry x="30" width="220" height="30" as="geometry">
            <mxRectangle width="220" height="30" as="alternateBounds" />
          </mxGeometry>
        </mxCell>
        <mxCell id="3Q6PbLY1gjNJ_34ThS2c-95" value="" style="edgeStyle=orthogonalEdgeStyle;rounded=0;orthogonalLoop=1;jettySize=auto;html=1;" edge="1" parent="1" source="3Q6PbLY1gjNJ_34ThS2c-65">
          <mxGeometry relative="1" as="geometry">
            <mxPoint x="1152" y="414" as="targetPoint" />
            <Array as="points">
              <mxPoint x="1152" y="414" />
            </Array>
          </mxGeometry>
        </mxCell>
        <mxCell id="3Q6PbLY1gjNJ_34ThS2c-96" style="edgeStyle=orthogonalEdgeStyle;rounded=0;orthogonalLoop=1;jettySize=auto;html=1;" edge="1" parent="1" source="3Q6PbLY1gjNJ_34ThS2c-65">
          <mxGeometry relative="1" as="geometry">
            <mxPoint x="1419" y="414" as="targetPoint" />
            <Array as="points">
              <mxPoint x="1419" y="414" />
            </Array>
          </mxGeometry>
        </mxCell>
        <mxCell id="3Q6PbLY1gjNJ_34ThS2c-65" value="POSSEDER" style="shape=table;startSize=30;container=1;collapsible=1;childLayout=tableLayout;fixedRows=1;rowLines=0;fontStyle=1;align=center;resizeLast=1;fillColor=#f5f5f5;strokeColor=#666666;fontColor=#333333;" vertex="1" parent="1">
          <mxGeometry x="1213" y="384" width="140" height="120" as="geometry" />
        </mxCell>
        <mxCell id="3Q6PbLY1gjNJ_34ThS2c-66" value="" style="shape=partialRectangle;collapsible=0;dropTarget=0;pointerEvents=0;fillColor=#ffe6cc;points=[[0,0.5],[1,0.5]];portConstraint=eastwest;top=0;left=0;right=0;bottom=1;strokeColor=#d79b00;" vertex="1" parent="3Q6PbLY1gjNJ_34ThS2c-65">
          <mxGeometry y="30" width="140" height="30" as="geometry" />
        </mxCell>
        <mxCell id="3Q6PbLY1gjNJ_34ThS2c-67" value="ID" style="shape=partialRectangle;overflow=hidden;connectable=0;fillColor=#dae8fc;top=0;left=0;bottom=0;right=0;fontStyle=1;strokeColor=#6c8ebf;" vertex="1" parent="3Q6PbLY1gjNJ_34ThS2c-66">
          <mxGeometry width="30" height="30" as="geometry">
            <mxRectangle width="30" height="30" as="alternateBounds" />
          </mxGeometry>
        </mxCell>
        <mxCell id="3Q6PbLY1gjNJ_34ThS2c-68" value="user_id,perm_id" style="shape=partialRectangle;overflow=hidden;connectable=0;fillColor=#dae8fc;top=0;left=0;bottom=0;right=0;align=left;spacingLeft=6;fontStyle=5;strokeColor=#6c8ebf;" vertex="1" parent="3Q6PbLY1gjNJ_34ThS2c-66">
          <mxGeometry x="30" width="110" height="30" as="geometry">
            <mxRectangle width="110" height="30" as="alternateBounds" />
          </mxGeometry>
        </mxCell>
        <mxCell id="3Q6PbLY1gjNJ_34ThS2c-69" value="" style="shape=partialRectangle;collapsible=0;dropTarget=0;pointerEvents=0;fillColor=#ffe6cc;points=[[0,0.5],[1,0.5]];portConstraint=eastwest;top=0;left=0;right=0;bottom=0;strokeColor=#d79b00;" vertex="1" parent="3Q6PbLY1gjNJ_34ThS2c-65">
          <mxGeometry y="60" width="140" height="30" as="geometry" />
        </mxCell>
        <mxCell id="3Q6PbLY1gjNJ_34ThS2c-70" value="1" style="shape=partialRectangle;overflow=hidden;connectable=0;fillColor=#dae8fc;top=0;left=0;bottom=0;right=0;strokeColor=#6c8ebf;fontStyle=1" vertex="1" parent="3Q6PbLY1gjNJ_34ThS2c-69">
          <mxGeometry width="30" height="30" as="geometry">
            <mxRectangle width="30" height="30" as="alternateBounds" />
          </mxGeometry>
        </mxCell>
        <mxCell id="3Q6PbLY1gjNJ_34ThS2c-71" value="perm_id" style="shape=partialRectangle;overflow=hidden;connectable=0;fillColor=#dae8fc;top=0;left=0;bottom=0;right=0;align=left;spacingLeft=6;strokeColor=#6c8ebf;fontStyle=1" vertex="1" parent="3Q6PbLY1gjNJ_34ThS2c-69">
          <mxGeometry x="30" width="110" height="30" as="geometry">
            <mxRectangle width="110" height="30" as="alternateBounds" />
          </mxGeometry>
        </mxCell>
        <mxCell id="3Q6PbLY1gjNJ_34ThS2c-100" style="shape=partialRectangle;collapsible=0;dropTarget=0;pointerEvents=0;fillColor=#ffe6cc;points=[[0,0.5],[1,0.5]];portConstraint=eastwest;top=0;left=0;right=0;bottom=0;strokeColor=#d79b00;" vertex="1" parent="3Q6PbLY1gjNJ_34ThS2c-65">
          <mxGeometry y="90" width="140" height="30" as="geometry" />
        </mxCell>
        <mxCell id="3Q6PbLY1gjNJ_34ThS2c-101" value="2" style="shape=partialRectangle;overflow=hidden;connectable=0;fillColor=#dae8fc;top=0;left=0;bottom=0;right=0;strokeColor=#6c8ebf;fontStyle=1" vertex="1" parent="3Q6PbLY1gjNJ_34ThS2c-100">
          <mxGeometry width="30" height="30" as="geometry">
            <mxRectangle width="30" height="30" as="alternateBounds" />
          </mxGeometry>
        </mxCell>
        <mxCell id="3Q6PbLY1gjNJ_34ThS2c-102" value="user_id" style="shape=partialRectangle;overflow=hidden;connectable=0;fillColor=#dae8fc;top=0;left=0;bottom=0;right=0;align=left;spacingLeft=6;strokeColor=#6c8ebf;fontStyle=1" vertex="1" parent="3Q6PbLY1gjNJ_34ThS2c-100">
          <mxGeometry x="30" width="110" height="30" as="geometry">
            <mxRectangle width="110" height="30" as="alternateBounds" />
          </mxGeometry>
        </mxCell>
        <mxCell id="3Q6PbLY1gjNJ_34ThS2c-97" style="edgeStyle=orthogonalEdgeStyle;rounded=0;orthogonalLoop=1;jettySize=auto;html=1;entryX=0.5;entryY=0;entryDx=0;entryDy=0;" edge="1" parent="1" source="3Q6PbLY1gjNJ_34ThS2c-72" target="3Q6PbLY1gjNJ_34ThS2c-53">
          <mxGeometry relative="1" as="geometry" />
        </mxCell>
        <mxCell id="3Q6PbLY1gjNJ_34ThS2c-98" style="edgeStyle=orthogonalEdgeStyle;rounded=0;orthogonalLoop=1;jettySize=auto;html=1;entryX=0.5;entryY=1;entryDx=0;entryDy=0;" edge="1" parent="1" source="3Q6PbLY1gjNJ_34ThS2c-72" target="3Q6PbLY1gjNJ_34ThS2c-31">
          <mxGeometry relative="1" as="geometry" />
        </mxCell>
        <mxCell id="3Q6PbLY1gjNJ_34ThS2c-72" value="ECRIRE" style="shape=table;startSize=30;container=1;collapsible=1;childLayout=tableLayout;fixedRows=1;rowLines=0;fontStyle=1;align=center;resizeLast=1;fillColor=#f5f5f5;strokeColor=#666666;fontColor=#333333;" vertex="1" parent="1">
          <mxGeometry x="963" y="494" width="130" height="120" as="geometry" />
        </mxCell>
        <mxCell id="3Q6PbLY1gjNJ_34ThS2c-73" value="" style="shape=partialRectangle;collapsible=0;dropTarget=0;pointerEvents=0;fillColor=#ffe6cc;points=[[0,0.5],[1,0.5]];portConstraint=eastwest;top=0;left=0;right=0;bottom=1;strokeColor=#d79b00;" vertex="1" parent="3Q6PbLY1gjNJ_34ThS2c-72">
          <mxGeometry y="30" width="130" height="30" as="geometry" />
        </mxCell>
        <mxCell id="3Q6PbLY1gjNJ_34ThS2c-74" value="ID" style="shape=partialRectangle;overflow=hidden;connectable=0;fillColor=#dae8fc;top=0;left=0;bottom=0;right=0;fontStyle=1;strokeColor=#6c8ebf;" vertex="1" parent="3Q6PbLY1gjNJ_34ThS2c-73">
          <mxGeometry width="30" height="30" as="geometry">
            <mxRectangle width="30" height="30" as="alternateBounds" />
          </mxGeometry>
        </mxCell>
        <mxCell id="3Q6PbLY1gjNJ_34ThS2c-75" value="user_id,article_id" style="shape=partialRectangle;overflow=hidden;connectable=0;fillColor=#dae8fc;top=0;left=0;bottom=0;right=0;align=left;spacingLeft=6;fontStyle=5;strokeColor=#6c8ebf;" vertex="1" parent="3Q6PbLY1gjNJ_34ThS2c-73">
          <mxGeometry x="30" width="100" height="30" as="geometry">
            <mxRectangle width="100" height="30" as="alternateBounds" />
          </mxGeometry>
        </mxCell>
        <mxCell id="3Q6PbLY1gjNJ_34ThS2c-76" value="" style="shape=partialRectangle;collapsible=0;dropTarget=0;pointerEvents=0;fillColor=#ffe6cc;points=[[0,0.5],[1,0.5]];portConstraint=eastwest;top=0;left=0;right=0;bottom=0;strokeColor=#d79b00;" vertex="1" parent="3Q6PbLY1gjNJ_34ThS2c-72">
          <mxGeometry y="60" width="130" height="30" as="geometry" />
        </mxCell>
        <mxCell id="3Q6PbLY1gjNJ_34ThS2c-77" value="1" style="shape=partialRectangle;overflow=hidden;connectable=0;fillColor=#dae8fc;top=0;left=0;bottom=0;right=0;strokeColor=#6c8ebf;fontStyle=1" vertex="1" parent="3Q6PbLY1gjNJ_34ThS2c-76">
          <mxGeometry width="30" height="30" as="geometry">
            <mxRectangle width="30" height="30" as="alternateBounds" />
          </mxGeometry>
        </mxCell>
        <mxCell id="3Q6PbLY1gjNJ_34ThS2c-78" value="article_id" style="shape=partialRectangle;overflow=hidden;connectable=0;fillColor=#dae8fc;top=0;left=0;bottom=0;right=0;align=left;spacingLeft=6;strokeColor=#6c8ebf;fontStyle=1" vertex="1" parent="3Q6PbLY1gjNJ_34ThS2c-76">
          <mxGeometry x="30" width="100" height="30" as="geometry">
            <mxRectangle width="100" height="30" as="alternateBounds" />
          </mxGeometry>
        </mxCell>
        <mxCell id="3Q6PbLY1gjNJ_34ThS2c-103" style="shape=partialRectangle;collapsible=0;dropTarget=0;pointerEvents=0;fillColor=#ffe6cc;points=[[0,0.5],[1,0.5]];portConstraint=eastwest;top=0;left=0;right=0;bottom=0;strokeColor=#d79b00;" vertex="1" parent="3Q6PbLY1gjNJ_34ThS2c-72">
          <mxGeometry y="90" width="130" height="30" as="geometry" />
        </mxCell>
        <mxCell id="3Q6PbLY1gjNJ_34ThS2c-104" value="2" style="shape=partialRectangle;overflow=hidden;connectable=0;fillColor=#dae8fc;top=0;left=0;bottom=0;right=0;strokeColor=#6c8ebf;fontStyle=1" vertex="1" parent="3Q6PbLY1gjNJ_34ThS2c-103">
          <mxGeometry width="30" height="30" as="geometry">
            <mxRectangle width="30" height="30" as="alternateBounds" />
          </mxGeometry>
        </mxCell>
        <mxCell id="3Q6PbLY1gjNJ_34ThS2c-105" value="user_id" style="shape=partialRectangle;overflow=hidden;connectable=0;fillColor=#dae8fc;top=0;left=0;bottom=0;right=0;align=left;spacingLeft=6;strokeColor=#6c8ebf;fontStyle=1" vertex="1" parent="3Q6PbLY1gjNJ_34ThS2c-103">
          <mxGeometry x="30" width="100" height="30" as="geometry">
            <mxRectangle width="100" height="30" as="alternateBounds" />
          </mxGeometry>
        </mxCell>
        <mxCell id="3Q6PbLY1gjNJ_34ThS2c-84" value="ARTICLE" style="shape=table;startSize=30;container=1;collapsible=1;childLayout=tableLayout;fixedRows=1;rowLines=0;fontStyle=1;align=center;resizeLast=1;fillColor=#ffe6cc;strokeColor=#d79b00;" vertex="1" parent="1">
          <mxGeometry x="53" y="483" width="250" height="120" as="geometry" />
        </mxCell>
        <mxCell id="3Q6PbLY1gjNJ_34ThS2c-85" value="" style="shape=partialRectangle;collapsible=0;dropTarget=0;pointerEvents=0;fillColor=#ffe6cc;points=[[0,0.5],[1,0.5]];portConstraint=eastwest;top=0;left=0;right=0;bottom=1;strokeColor=#d79b00;" vertex="1" parent="3Q6PbLY1gjNJ_34ThS2c-84">
          <mxGeometry y="30" width="250" height="30" as="geometry" />
        </mxCell>
        <mxCell id="3Q6PbLY1gjNJ_34ThS2c-86" value="ID" style="shape=partialRectangle;overflow=hidden;connectable=0;fillColor=#f8cecc;top=0;left=0;bottom=0;right=0;fontStyle=1;strokeColor=#b85450;" vertex="1" parent="3Q6PbLY1gjNJ_34ThS2c-85">
          <mxGeometry width="30" height="30" as="geometry">
            <mxRectangle width="30" height="30" as="alternateBounds" />
          </mxGeometry>
        </mxCell>
        <mxCell id="3Q6PbLY1gjNJ_34ThS2c-87" value="article_id | int NOT NULL" style="shape=partialRectangle;overflow=hidden;connectable=0;fillColor=#f8cecc;top=0;left=0;bottom=0;right=0;align=left;spacingLeft=6;fontStyle=5;strokeColor=#b85450;" vertex="1" parent="3Q6PbLY1gjNJ_34ThS2c-85">
          <mxGeometry x="30" width="220" height="30" as="geometry">
            <mxRectangle width="220" height="30" as="alternateBounds" />
          </mxGeometry>
        </mxCell>
        <mxCell id="3Q6PbLY1gjNJ_34ThS2c-88" value="" style="shape=partialRectangle;collapsible=0;dropTarget=0;pointerEvents=0;fillColor=#ffe6cc;points=[[0,0.5],[1,0.5]];portConstraint=eastwest;top=0;left=0;right=0;bottom=0;strokeColor=#d79b00;" vertex="1" parent="3Q6PbLY1gjNJ_34ThS2c-84">
          <mxGeometry y="60" width="250" height="30" as="geometry" />
        </mxCell>
        <mxCell id="3Q6PbLY1gjNJ_34ThS2c-89" value="1" style="shape=partialRectangle;overflow=hidden;connectable=0;fillColor=#ffe6cc;top=0;left=0;bottom=0;right=0;strokeColor=#d79b00;" vertex="1" parent="3Q6PbLY1gjNJ_34ThS2c-88">
          <mxGeometry width="30" height="30" as="geometry">
            <mxRectangle width="30" height="30" as="alternateBounds" />
          </mxGeometry>
        </mxCell>
        <mxCell id="3Q6PbLY1gjNJ_34ThS2c-90" value="title | varchar(255) NOT NULL" style="shape=partialRectangle;overflow=hidden;connectable=0;fillColor=#ffe6cc;top=0;left=0;bottom=0;right=0;align=left;spacingLeft=6;strokeColor=#d79b00;" vertex="1" parent="3Q6PbLY1gjNJ_34ThS2c-88">
          <mxGeometry x="30" width="220" height="30" as="geometry">
            <mxRectangle width="220" height="30" as="alternateBounds" />
          </mxGeometry>
        </mxCell>
        <mxCell id="3Q6PbLY1gjNJ_34ThS2c-91" style="shape=partialRectangle;collapsible=0;dropTarget=0;pointerEvents=0;fillColor=#ffe6cc;points=[[0,0.5],[1,0.5]];portConstraint=eastwest;top=0;left=0;right=0;bottom=0;strokeColor=#d79b00;" vertex="1" parent="3Q6PbLY1gjNJ_34ThS2c-84">
          <mxGeometry y="90" width="250" height="30" as="geometry" />
        </mxCell>
        <mxCell id="3Q6PbLY1gjNJ_34ThS2c-92" value="2" style="shape=partialRectangle;overflow=hidden;connectable=0;fillColor=#ffe6cc;top=0;left=0;bottom=0;right=0;strokeColor=#d79b00;" vertex="1" parent="3Q6PbLY1gjNJ_34ThS2c-91">
          <mxGeometry width="30" height="30" as="geometry">
            <mxRectangle width="30" height="30" as="alternateBounds" />
          </mxGeometry>
        </mxCell>
        <mxCell id="3Q6PbLY1gjNJ_34ThS2c-93" value="text | varchat(1000) NOT NULL" style="shape=partialRectangle;overflow=hidden;connectable=0;fillColor=#ffe6cc;top=0;left=0;bottom=0;right=0;align=left;spacingLeft=6;strokeColor=#d79b00;" vertex="1" parent="3Q6PbLY1gjNJ_34ThS2c-91">
          <mxGeometry x="30" width="220" height="30" as="geometry">
            <mxRectangle width="220" height="30" as="alternateBounds" />
          </mxGeometry>
        </mxCell>
      </root>
    </mxGraphModel>
  </diagram>
</mxfile>
